<svg xmlns="http://www.w3.org/2000/svg" viewBox="-8106 1376.388 78.836 59.342">
  <defs>
    <style>
      .cls-1 {
        fill: #ef5659;
      }
    </style>
  </defs>
  <g id="list_2" data-name="list 2" transform="translate(-8106 1368.954)">
    <path id="Path_215" data-name="Path 215" class="cls-1" d="M70.571,53.761H17.854a3.934,3.934,0,0,1,0-7.868H70.57a3.934,3.934,0,0,1,0,7.868Z" transform="translate(4.333 11.97)"/>
    <path id="Path_216" data-name="Path 216" class="cls-1" d="M70.571,34.93H17.854a3.934,3.934,0,0,1,0-7.868H70.57a3.934,3.934,0,0,1,0,7.868Z" transform="translate(4.333 6.109)"/>
    <path id="Path_217" data-name="Path 217" class="cls-1" d="M70.571,16.1H17.854a3.934,3.934,0,0,1,0-7.868H70.57a3.934,3.934,0,0,1,0,7.868Z" transform="translate(4.333 0.248)"/>
    <circle id="Ellipse_1" data-name="Ellipse 1" class="cls-1" cx="5.283" cy="5.283" r="5.283" transform="translate(0 7.434)"/>
    <circle id="Ellipse_2" data-name="Ellipse 2" class="cls-1" cx="5.283" cy="5.283" r="5.283" transform="translate(0 31.822)"/>
    <circle id="Ellipse_3" data-name="Ellipse 3" class="cls-1" cx="5.283" cy="5.283" r="5.283" transform="translate(0 56.21)"/>
  </g>
</svg>
