<svg xmlns="http://www.w3.org/2000/svg" viewBox="-8233 65.107 197.276 76.613"><defs><style>.a,.b{fill:#fff;}.b{font-size:31px;font-family:Lato-Bold, Lato;font-weight:700;}</style></defs><g transform="translate(-9074.173 -741.416)"><g transform="translate(841.173 806.523)"><g transform="translate(61.606)"><path class="a" d="M1026.1,862.083c.866-3.8,4-5.63,6.762-7.629a13.647,13.647,0,0,0,5.9-10.86,11.412,11.412,0,0,0-3.132-8.3,62.343,62.343,0,0,0-6.2-5.33c-2.465-1.9-3.731-6.2-2.965-9.894.666-3.331,4.664-6.1,7.329-6.463,3.331-.466,6.1.766,8.861,2.365,4.4,2.665,9.161,4.2,14.191,3.531a34.274,34.274,0,0,0,16.657-7.629c2.765-2.3,5.33-4.564,9.161-5.23,5.33-.966,12.393,3.8,13.059,9.228.866,6.663-2.565,11.527-7.9,13.892-4.564,2-9.061,4.564-11.893,9.061-4.4,6.962-1.333,14.391,4.564,18.489a47.872,47.872,0,0,1,7.129,5.43c6,5.9,3.431,17.056-4.964,19.622a.83.83,0,0,0-.366.466c-2.1.1-4.1.2-6.2.3-5.53-1.532-8.3-5.63-10.494-10.66a15.6,15.6,0,0,0-5.33-6.1c-5.23-3.631-12.493-2.3-16.857,2.365-2,2.1-4.1,4.1-7.229,4.4-4.664.566-7.8-1.7-9.894-5.63C1026.3,865.58,1026.2,863.882,1026.1,862.083Zm66.194-44.007a7.682,7.682,0,0,0-12.559-5.73c-4.464,3.531-8.662,7.429-13.226,10.76-6.2,4.464-14.292,5.33-20.954.866-2.365-1.532-4.4-3.631-6.763-5.13a8.153,8.153,0,0,0-4.464-1.333,4.515,4.515,0,0,0-4.464,3.9c-.566,2.765.366,4.4,3.131,6,2.965,1.7,5.9,3.132,8.1,6,5.8,7.429,4.764,17.423-2.2,23.153a32.958,32.958,0,0,1-6.863,3.9c-2.465,1.233-2.465,3.331-2.2,5.63a4.169,4.169,0,0,0,3.631,3.531,5.005,5.005,0,0,0,5.13-2.1,62.935,62.935,0,0,1,4.864-5.73,14.185,14.185,0,0,1,11.993-3.531c8.295,1.233,12.559,6.763,14.758,14.292a9.131,9.131,0,0,0,3.431,5.064,8.688,8.688,0,0,0,11.993-1.8c2.665-3.731,1.332-10.394-2.3-12.393-3.8-2-7.8-4.1-10.96-6.963a14.373,14.373,0,0,1,1.133-22.587A142.336,142.336,0,0,1,1087.7,825.4C1090.861,823.772,1092.494,821.573,1092.294,818.075Z" transform="translate(-1026.1 -806.523)"/></g><g transform="translate(83.193 24.411)"><path class="a" d="M1106.091,900.454a1.314,1.314,0,0,1,1.033.366,1.186,1.186,0,0,1,.366.966v2.465H1090.9V902.92a2.718,2.718,0,0,1,.2-.866,2.576,2.576,0,0,1,.566-.866l7.329-7.329c.566-.666,1.133-1.233,1.632-1.8a18.179,18.179,0,0,0,1.233-1.7,12.73,12.73,0,0,0,.766-1.7,5.225,5.225,0,0,0,.3-1.8,3.927,3.927,0,0,0-.3-1.532,4.234,4.234,0,0,0-.666-1.133,2.289,2.289,0,0,0-1.133-.666,3.328,3.328,0,0,0-1.433-.2,5.336,5.336,0,0,0-1.333.2,5.983,5.983,0,0,0-1.133.566l-.866.866a3.856,3.856,0,0,0-.467,1.133,2.154,2.154,0,0,1-.766,1.033,1.893,1.893,0,0,1-1.333.1l-2.2-.366a9.464,9.464,0,0,1,.966-3.065,6.456,6.456,0,0,1,1.8-2.2,8.4,8.4,0,0,1,2.465-1.333,9.691,9.691,0,0,1,2.965-.466,11.148,11.148,0,0,1,3.065.466,5.524,5.524,0,0,1,2.365,1.432,6.819,6.819,0,0,1,2.1,5.064,7.487,7.487,0,0,1-.366,2.465,8.835,8.835,0,0,1-1.033,2.2c-.466.666-.966,1.333-1.532,2s-1.233,1.333-1.8,2l-5.43,5.53a6.05,6.05,0,0,1,1.533-.366,7.233,7.233,0,0,1,1.432-.1l6.263-.033Z" transform="translate(-1090.9 -879.8)"/></g><text class="b" transform="translate(117.276 47.901)"><tspan x="0" y="0">Share</tspan></text><text class="b" transform="translate(0 43.025)"><tspan x="0" y="0">Care</tspan></text></g></g></svg>