<svg xmlns="http://www.w3.org/2000/svg" viewBox="0 0 484.06 229.98"><defs><style>.cls-1,.cls-2,.cls-3{fill:#fff;}.cls-2,.cls-3{isolation:isolate;font-family:Lato-Bold, Lato;font-weight:700;}.cls-2{font-size:72.73px;}.cls-3{font-size:79.06px;}</style></defs><title>Asset 3</title><g id="Layer_2" data-name="Layer 2"><g id="Layer_1-2" data-name="Layer 1"><path class="cls-1" d="M141.4,166.78c2.6-11.4,12-16.9,20.3-22.9,11.2-8.3,17.2-19.2,17.7-32.6a34.26,34.26,0,0,0-9.4-24.9c-5.7-6-12.3-10.9-18.6-16-7.4-5.7-11.2-18.6-8.9-29.7,2-10,14-18.3,22-19.4,10-1.4,18.3,2.3,26.6,7.1,13.2,8,27.5,12.6,42.6,10.6a102.88,102.88,0,0,0,50-22.9c8.3-6.9,16-13.7,27.5-15.7,16-2.9,37.2,11.4,39.2,27.7,2.6,20-7.7,34.6-23.7,41.7-13.7,6-27.2,13.7-35.7,27.2-13.2,20.9-4,43.2,13.7,55.5,7.4,5.1,15.2,10,21.4,16.3,18,17.7,10.3,51.2-14.9,58.9a2.49,2.49,0,0,0-1.1,1.4l-18.6.9c-16.6-4.6-24.9-16.9-31.5-32-3.1-7.1-9.4-13.7-16-18.3-15.7-10.9-37.5-6.9-50.6,7.1-6,6.3-12.3,12.3-21.7,13.2-14,1.7-23.4-5.1-29.7-16.9C142,177.28,141.7,172.18,141.4,166.78ZM340.1,34.68c-.3-9.7-5.1-16.6-14-20.6-8.6-4-16.9-2-23.7,3.4-13.4,10.6-26,22.3-39.7,32.3-18.6,13.4-42.9,16-62.9,2.6-7.1-4.6-13.2-10.9-20.3-15.4a24.47,24.47,0,0,0-13.4-4c-7.1,0-12,4.9-13.4,11.7-1.7,8.3,1.1,13.2,9.4,18,8.9,5.1,17.7,9.4,24.3,18,17.4,22.3,14.3,52.3-6.6,69.5-6,4.9-13.4,8.3-20.6,11.7-7.4,3.7-7.4,10-6.6,16.9.9,6.3,5.4,9.4,10.9,10.6,6.3,1.1,11.4-1.1,15.4-6.3,4.9-5.7,9.2-12.3,14.6-17.2,10.3-9.2,22.6-12.6,36-10.6,24.9,3.7,37.7,20.3,44.3,42.9,2,6.6,5.1,11.4,10.3,15.2,11.7,8.3,28,5.7,36-5.4s4-31.2-6.9-37.2c-11.4-6-23.4-12.3-32.9-20.9-20.6-18.6-20-50.9,3.4-67.8,13.4-9.7,28.3-17.4,42.6-25.4C335.8,51.78,340.7,45.18,340.1,34.68Z"/><path class="cls-1" d="M251.8,135.28a3.94,3.94,0,0,1,3.1,1.1,3.56,3.56,0,0,1,1.1,2.9v7.4H206.2v-4a8.17,8.17,0,0,1,.6-2.6,7.73,7.73,0,0,1,1.7-2.6l22-22c1.7-2,3.4-3.7,4.9-5.4a54.53,54.53,0,0,0,3.7-5.1,38.19,38.19,0,0,0,2.3-5.1,15.69,15.69,0,0,0,.9-5.4,11.79,11.79,0,0,0-.9-4.6,12.7,12.7,0,0,0-2-3.4,6.87,6.87,0,0,0-3.4-2,10,10,0,0,0-4.3-.6,16,16,0,0,0-4,.6,18,18,0,0,0-3.4,1.7l-2.6,2.6a11.57,11.57,0,0,0-1.4,3.4,6.47,6.47,0,0,1-2.3,3.1c-.9.6-2.3.6-4,.3l-6.6-1.1a28.39,28.39,0,0,1,2.9-9.2,19.37,19.37,0,0,1,5.4-6.6,25.23,25.23,0,0,1,7.4-4,29.09,29.09,0,0,1,8.9-1.4,33.46,33.46,0,0,1,9.2,1.4,16.58,16.58,0,0,1,7.1,4.3,20.47,20.47,0,0,1,6.3,15.2,22.48,22.48,0,0,1-1.1,7.4,26.55,26.55,0,0,1-3.1,6.6c-1.4,2-2.9,4-4.6,6s-3.7,4-5.4,6l-16.3,16.6a18.16,18.16,0,0,1,4.6-1.1,21.73,21.73,0,0,1,4.3-.3l18.8-.1Z"/><text class="cls-2" transform="translate(297.04 142.18)">Share</text><text class="cls-3" transform="translate(0 129.93)">Care</text></g></g></svg>