<svg xmlns="http://www.w3.org/2000/svg" viewBox="-8100 220.263 228.972 480.737"><defs><style>.a,.d,.e{fill:#fff;}.b{fill:#ef5659;}.c{fill:#333;fill-rule:evenodd;}.d{font-size:18px;font-family:SegoeUI, Segoe UI;}.e{font-size:24px;font-family:Lato-Bold, Lato;font-weight:700;}</style></defs><g transform="translate(-8393 24)"><g transform="translate(-444 -7)"><rect class="a" width="113" height="40" transform="translate(790 217)"/><g transform="translate(453)"><rect class="b" width="207" height="359" transform="translate(298 268)"/><g transform="translate(284 203.263)"><path class="c" d="M3.108,169.915H0V152.3H3.108V130.545H0V112.932H3.108V90.138H0V68.381H3.108V35.232A33.155,33.155,0,0,1,36.253,2.072H154.374V0h37.3V2.072h4.154a33.154,33.154,0,0,1,33.145,33.16V447.576a33.155,33.155,0,0,1-33.145,33.16H36.253a33.154,33.154,0,0,1-33.145-33.16ZM97.4,41.443a1.04,1.04,0,0,0-1.045,1.046v2.053a1.043,1.043,0,0,0,1.036,1.046h36.255a1.039,1.039,0,0,0,1.044-1.046V42.489a1.039,1.039,0,0,0-1.045-1.046Zm18.122-11.4a4.662,4.662,0,1,0-4.662-4.662A4.662,4.662,0,0,0,115.522,30.046ZM18.644,68.381a2.076,2.076,0,0,0-2.066,2.082V413.382a2.078,2.078,0,0,0,2.066,2.082H213.436a2.076,2.076,0,0,0,2.066-2.082V70.463a2.078,2.078,0,0,0-2.066-2.082Zm97.4,397.851a19.685,19.685,0,1,0-19.685-19.685A19.685,19.685,0,0,0,116.04,466.232ZM83.922,46.623a3.108,3.108,0,1,0-3.108-3.108A3.108,3.108,0,0,0,83.922,46.623ZM116.04,464.159a17.613,17.613,0,1,0-17.613-17.613A17.613,17.613,0,0,0,116.04,464.159Z"/></g></g></g><text class="d" transform="translate(321 467)"><tspan x="13.155" y="19">Emotional support </tspan><tspan x="10.62" y="43">platform for nurses</tspan></text><g transform="translate(-515.173 -450.256)"><g transform="translate(841.173 806.523)"><g transform="translate(53.303)"><path class="a" d="M1026.1,854.594c.749-3.286,3.459-4.871,5.851-6.6a11.808,11.808,0,0,0,5.1-9.4,9.874,9.874,0,0,0-2.709-7.177,53.921,53.921,0,0,0-5.361-4.612c-2.133-1.643-3.228-5.361-2.565-8.561.577-2.882,4.036-5.275,6.341-5.592,2.882-.4,5.275.663,7.667,2.046,3.8,2.306,7.927,3.632,12.279,3.055a29.656,29.656,0,0,0,14.412-6.6c2.392-1.989,4.612-3.949,7.926-4.525,4.612-.836,10.722,3.286,11.3,7.984a11.015,11.015,0,0,1-6.831,12.019c-3.949,1.729-7.84,3.949-10.29,7.84-3.8,6.024-1.153,12.452,3.949,16a41.44,41.44,0,0,1,6.168,4.7c5.188,5.1,2.969,14.758-4.295,16.977a.718.718,0,0,0-.317.4c-1.816.086-3.545.173-5.361.259-4.785-1.326-7.177-4.871-9.079-9.224a13.493,13.493,0,0,0-4.612-5.275c-4.526-3.142-10.809-1.989-14.585,2.047-1.729,1.816-3.545,3.545-6.255,3.8-4.035.49-6.745-1.47-8.56-4.871C1026.273,857.621,1026.186,856.151,1026.1,854.594Zm57.272-38.076a6.647,6.647,0,0,0-10.866-4.958c-3.862,3.055-7.494,6.428-11.443,9.31-5.361,3.862-12.365,4.612-18.13.749-2.047-1.326-3.8-3.142-5.851-4.439a7.054,7.054,0,0,0-3.862-1.153,3.907,3.907,0,0,0-3.862,3.372c-.49,2.392.317,3.8,2.709,5.188,2.565,1.47,5.1,2.709,7,5.188,5.015,6.428,4.122,15.075-1.9,20.032a28.512,28.512,0,0,1-5.938,3.372c-2.133,1.066-2.133,2.882-1.9,4.871a3.607,3.607,0,0,0,3.142,3.055,4.33,4.33,0,0,0,4.439-1.816,54.48,54.48,0,0,1,4.208-4.958,12.273,12.273,0,0,1,10.377-3.055c7.177,1.066,10.866,5.851,12.769,12.365a7.9,7.9,0,0,0,2.969,4.381,7.517,7.517,0,0,0,10.377-1.557c2.306-3.228,1.153-8.993-1.989-10.722a45.6,45.6,0,0,1-9.483-6.024,12.436,12.436,0,0,1,.98-19.542,123.172,123.172,0,0,1,12.279-7.321C1082.133,821.447,1083.545,819.545,1083.373,816.518Z" transform="translate(-1026.1 -806.523)"/></g><g transform="translate(71.98 21.121)"><path class="a" d="M1104.043,897.671a1.137,1.137,0,0,1,.894.317,1.027,1.027,0,0,1,.317.836v2.133H1090.9V899.8a2.355,2.355,0,0,1,.173-.749,2.229,2.229,0,0,1,.49-.749l6.341-6.341c.49-.577.98-1.066,1.412-1.557a15.759,15.759,0,0,0,1.066-1.47,11.024,11.024,0,0,0,.663-1.47,4.521,4.521,0,0,0,.259-1.557,3.4,3.4,0,0,0-.259-1.326,3.659,3.659,0,0,0-.577-.98,1.979,1.979,0,0,0-.98-.576,2.88,2.88,0,0,0-1.24-.173,4.616,4.616,0,0,0-1.153.173,5.158,5.158,0,0,0-.98.49l-.75.749a3.342,3.342,0,0,0-.4.98,1.864,1.864,0,0,1-.663.894,1.637,1.637,0,0,1-1.153.086l-1.9-.317a8.192,8.192,0,0,1,.836-2.652,5.589,5.589,0,0,1,1.557-1.9,7.271,7.271,0,0,1,2.133-1.153,8.385,8.385,0,0,1,2.565-.4,9.643,9.643,0,0,1,2.652.4,4.781,4.781,0,0,1,2.047,1.239,5.9,5.9,0,0,1,1.816,4.381,6.48,6.48,0,0,1-.317,2.133,7.655,7.655,0,0,1-.894,1.9c-.4.576-.836,1.153-1.326,1.729s-1.066,1.153-1.556,1.729l-4.7,4.785a5.233,5.233,0,0,1,1.326-.317,6.254,6.254,0,0,1,1.239-.087l5.419-.029Z" transform="translate(-1090.9 -879.8)"/></g><text class="e" transform="translate(101.47 38.624)"><tspan x="0" y="0">Share</tspan></text><text class="e" transform="translate(0 34.404)"><tspan x="0" y="0">Care</tspan></text></g></g></g></svg>