<svg xmlns="http://www.w3.org/2000/svg" viewBox="-8137 1205 109.837 55.679">
  <defs>
    <style>
      .cls-1 {
        fill: #ef5659;
      }
    </style>
  </defs>
  <g id="mail-send" transform="translate(-8137 1119.74)">
    <path id="Path_171" data-name="Path 171" class="cls-1" d="M140.9,140.893c.041-.008.082-.019.122-.03s.07-.016.1-.027.078-.027.117-.041.069-.023.1-.038.072-.033.107-.05.07-.032.1-.05.066-.039.1-.058.068-.039.1-.062.068-.05.1-.075.058-.041.086-.064c.051-.042.1-.087.148-.134l.026-.024c.009-.009.017-.019.025-.028.046-.047.09-.1.132-.146.024-.03.046-.061.069-.092s.048-.063.07-.1.044-.072.066-.108.037-.06.054-.092.036-.074.054-.111.032-.066.046-.1.027-.074.041-.111.027-.072.038-.109.02-.076.029-.114.02-.074.027-.112.014-.09.021-.135.01-.063.014-.1a2.372,2.372,0,0,0,.012-.238V87.642a2.382,2.382,0,0,0-2.382-2.382H65.4c-.021,0-.041,0-.062,0-.045,0-.091,0-.136.007s-.071.007-.107.012-.081.011-.121.018-.075.015-.112.023-.076.018-.113.029-.074.022-.11.034-.074.026-.111.041-.069.028-.1.043-.075.035-.111.054l-.093.05c-.037.021-.073.043-.109.066l-.087.059c-.034.024-.067.049-.1.075s-.059.048-.088.073-.057.05-.084.077-.062.062-.091.093c-.015.016-.031.03-.045.046s-.015.02-.024.03c-.03.035-.058.071-.086.107s-.041.053-.06.081-.048.072-.071.109-.038.06-.055.091-.037.072-.056.109-.034.067-.049.1-.029.073-.043.11-.028.071-.039.108-.021.074-.031.111-.021.076-.03.114-.013.072-.02.109-.014.083-.019.124-.006.069-.009.1-.006.089-.007.134c0,.013,0,.026,0,.039v14.69a2.382,2.382,0,1,0,4.764,0v-9.4l21.178,18.75a2.407,2.407,0,0,0-.316.263L67.786,132.806V117.153a2.382,2.382,0,1,0-4.764,0v2.91H50.715a2.382,2.382,0,1,0,0,4.764H63.022v13.73a2.382,2.382,0,0,0,2.382,2.382h75.033c.078,0,.157,0,.235-.012.037,0,.072-.01.108-.016S140.861,140.9,140.9,140.893Zm-2.847-8.087-20.862-20.862c-.013-.013-.028-.024-.041-.037L132.835,98.6a2.382,2.382,0,1,0-3.082-3.632l-26.8,22.737L71.688,90.024h66.367v42.782ZM92.017,115.314a2.372,2.372,0,0,0,.415-.561l8.909,7.888a2.382,2.382,0,0,0,3.12.033l9.079-7.7a2.4,2.4,0,0,0,.283.343l20.862,20.862H71.155Z" transform="translate(-32.983)"/>
    <path id="Path_172" data-name="Path 172" class="cls-1" d="M2.382,160.44H42.611a2.382,2.382,0,0,0,0-4.764H2.382a2.382,2.382,0,0,0,0,4.764Z" transform="translate(0 -48.052)"/>
    <path id="Path_173" data-name="Path 173" class="cls-1" d="M15.507,119.109H33.57a2.382,2.382,0,0,0,0-4.764H15.507a2.382,2.382,0,0,0,0,4.764Z" transform="translate(-8.957 -19.848)"/>
    <path id="Path_174" data-name="Path 174" class="cls-1" d="M19.85,226.51H2.382a2.382,2.382,0,0,0,0,4.764H19.85a2.382,2.382,0,0,0,0-4.764Z" transform="translate(0 -96.389)"/>
  </g>
</svg>
