<svg xmlns="http://www.w3.org/2000/svg" viewBox="-8090 1702 62.96 82.777">
  <defs>
    <style>
      .cls-1 {
        fill: #ef5659;
      }
    </style>
  </defs>
  <g id="man-user" transform="translate(-8131.895 1702)">
    <path id="Path_176" data-name="Path 176" class="cls-1" d="M121.2,40.483c9.2,0,16.665-9.062,16.665-20.242S135.415,0,121.2,0s-16.665,9.062-16.665,20.242S112,40.483,121.2,40.483Z" transform="translate(-47.825)"/>
    <path id="Path_177" data-name="Path 177" d="M41.9,300.722c0-.682-.006-.192,0,0Z" transform="translate(0 -229.333)"/>
    <path id="Path_178" data-name="Path 178" d="M308.085,302.105c.009-.187,0-1.295,0,0Z" transform="translate(-203.235 -230.183)"/>
    <path id="Path_179" data-name="Path 179" class="cls-1" d="M104.825,206.276c-.309-19.474-2.852-25.023-22.315-28.536,0,0-2.74,3.491-9.125,3.491s-9.126-3.491-9.126-3.491c-19.25,3.474-21.948,8.941-22.3,27.9-.029,1.548-.043,1.63-.048,1.45,0,.337,0,.96,0,2.046,0,0,4.634,9.341,31.474,9.341s31.474-9.341,31.474-9.341c0-.7,0-1.183,0-1.513A12.531,12.531,0,0,1,104.825,206.276Z" transform="translate(-0.01 -135.704)"/>
  </g>
</svg>
